<svg width="200" height="200" viewBox="0 0 200 200" fill="none" xmlns="http://www.w3.org/2000/svg">
<path d="M100 153.125L88.2812 176.562L100 200C112.944 200 123.438 189.507 123.438 176.562C123.438 163.618 112.944 153.125 100 153.125Z" fill="#0A77E8"/>
<path d="M76.5625 176.562C76.5625 189.507 87.0559 200 100 200V153.125C87.0559 153.125 76.5625 163.618 76.5625 176.562Z" fill="#0F9AF0"/>
<path d="M100 0L76.5625 23.4375L100 46.875C107.754 46.875 114.062 53.1832 114.062 60.9375C114.062 65.0695 112.249 68.9805 109.086 71.6684L100 79.393L84.375 110.4L100 141.406H123.438V120.993L139.444 107.385C153.103 95.7777 160.938 78.8488 160.938 60.9375C160.938 27.3363 133.601 0 100 0Z" fill="#0A77E8"/>
<path d="M76.5625 99.3195V141.406H100V79.393L76.5625 99.3195Z" fill="#0F9AF0"/>
<path d="M39.0625 60.9375V66.7969H85.9375V60.9375C85.9375 53.1832 92.2457 46.875 100 46.875V0C66.3988 0 39.0625 27.3363 39.0625 60.9375Z" fill="#0F9AF0"/>
</svg>
